<svg width="1920" height="1080" viewBox="0 0 1920 1080" fill="none" xmlns="http://www.w3.org/2000/svg">
  <rect width="1920" height="1080" fill="#F4EFE8"/>
  <g opacity="0.7">
    <path d="M0 230C220 183 432 315 656 302C901 288 1063 147 1309 165C1546 182 1717 319 1920 384V1080H0V230Z" fill="url(#paint0_linear_hero)"/>
    <path d="M0 574C181 532 382 637 572 619C790 598 956 452 1182 443C1459 431 1696 548 1920 612V1080H0V574Z" fill="url(#paint1_linear_hero)"/>
  </g>
  <g opacity="0.22">
    <circle cx="365" cy="312" r="240" fill="#CCAE7A"/>
    <circle cx="1450" cy="262" r="260" fill="#DCC8A5"/>
    <circle cx="1268" cy="802" r="362" fill="#B89262"/>
  </g>
  <defs>
    <linearGradient id="paint0_linear_hero" x1="250" y1="144" x2="1427" y2="940" gradientUnits="userSpaceOnUse">
      <stop stop-color="#E0C79F"/>
      <stop offset="1" stop-color="#AA7E4D"/>
    </linearGradient>
    <linearGradient id="paint1_linear_hero" x1="121" y1="512" x2="1710" y2="1015" gradientUnits="userSpaceOnUse">
      <stop stop-color="#F0E3D1"/>
      <stop offset="1" stop-color="#BC9361"/>
    </linearGradient>
  </defs>
</svg>
