<svg width="1200" height="1200" viewBox="0 0 1200 1200" fill="none" xmlns="http://www.w3.org/2000/svg">
  <rect width="1200" height="1200" fill="#F8F4EE"/>
  <g opacity="0.65">
    <ellipse cx="341" cy="366" rx="298" ry="202" fill="url(#paint0_radial_curation)"/>
    <ellipse cx="861" cy="735" rx="324" ry="236" fill="url(#paint1_radial_curation)"/>
  </g>
  <g opacity="0.5">
    <path d="M153 204C264 188 329 270 427 282C522 293 620 242 724 238C837 234 931 285 1047 294" stroke="#A7865D" stroke-width="2"/>
    <path d="M108 468C258 431 375 552 533 551C676 551 773 446 915 457C991 462 1052 504 1122 537" stroke="#C8AF8B" stroke-width="2"/>
    <path d="M149 845C271 794 396 885 529 872C656 859 753 752 882 752C961 752 1037 786 1110 824" stroke="#8E6F4C" stroke-width="2"/>
  </g>
  <rect x="94" y="94" width="1012" height="1012" stroke="#D7C8B3" stroke-width="2" opacity="0.7"/>
  <defs>
    <radialGradient id="paint0_radial_curation" cx="0" cy="0" r="1" gradientUnits="userSpaceOnUse" gradientTransform="translate(341 366) rotate(90) scale(202 298)">
      <stop stop-color="#E3D0B2"/>
      <stop offset="1" stop-color="#E3D0B2" stop-opacity="0"/>
    </radialGradient>
    <radialGradient id="paint1_radial_curation" cx="0" cy="0" r="1" gradientUnits="userSpaceOnUse" gradientTransform="translate(861 735) rotate(90) scale(236 324)">
      <stop stop-color="#B58E61"/>
      <stop offset="1" stop-color="#B58E61" stop-opacity="0"/>
    </radialGradient>
  </defs>
</svg>
