<svg width="1200" height="1200" viewBox="0 0 1200 1200" fill="none" xmlns="http://www.w3.org/2000/svg">
  <rect width="1200" height="1200" fill="#F7F2EC"/>
  <g opacity="0.9">
    <path d="M-47 259C152 188 289 324 468 313C637 302 759 163 946 201C1060 224 1148 320 1247 367V1200H-47V259Z" fill="url(#paint0_linear_texture)"/>
    <path d="M-38 630C112 557 288 651 443 617C600 582 724 457 886 463C1026 468 1138 582 1244 640V1200H-38V630Z" fill="url(#paint1_linear_texture)"/>
  </g>
  <g opacity="0.18">
    <circle cx="258" cy="356" r="178" fill="#D4B173"/>
    <circle cx="903" cy="248" r="240" fill="#E5D4BB"/>
    <circle cx="812" cy="772" r="320" fill="#C7B18B"/>
  </g>
  <defs>
    <linearGradient id="paint0_linear_texture" x1="183" y1="192" x2="920" y2="980" gradientUnits="userSpaceOnUse">
      <stop stop-color="#DDC197"/>
      <stop offset="1" stop-color="#B38A5A"/>
    </linearGradient>
    <linearGradient id="paint1_linear_texture" x1="84" y1="547" x2="1127" y2="1161" gradientUnits="userSpaceOnUse">
      <stop stop-color="#F3E6D6"/>
      <stop offset="1" stop-color="#C09A69"/>
    </linearGradient>
  </defs>
</svg>
